HIERARCHY
ROOT root
{
	OFFSET	0	13.1	24.9
	CHANNELS 6  Xposition Yposition Zposition Xrotation Yrotation Zrotation
	JOINT spine_1
	{
		OFFSET	0	9.99999	0
		CHANNELS 3  Xrotation Yrotation Zrotation
		JOINT spine_2
		{
			OFFSET	0	112	-10
			CHANNELS 3  Xrotation Yrotation Zrotation
			JOINT spine_3
			{
				OFFSET	0	206.5	19.3
				CHANNELS 3  Xrotation Yrotation Zrotation
				JOINT spine_4
				{
					OFFSET	0	110.4	14.6
					CHANNELS 3  Xrotation Yrotation Zrotation
					JOINT neck_1
					{
						OFFSET	0	71.8	-50.3
						CHANNELS 3  Xrotation Yrotation Zrotation
						JOINT neck_2
						{
							OFFSET	0	86.2	-25.8
							CHANNELS 3  Xrotation Yrotation Zrotation
							JOINT head_ee
							{
								OFFSET	0	179.8	-8.7
								CHANNELS 3  Xrotation Yrotation Zrotation
								End Site
								{
									OFFSET	1	0	0
								}
							}
						}
					}
					JOINT left_clavicle
					{
						OFFSET	-43.2	22.4	-70.8
						CHANNELS 3  Xrotation Yrotation Zrotation
						JOINT left_shoulder
						{
							OFFSET	-93.9	-5.79999	48.7
							CHANNELS 3  Xrotation Yrotation Zrotation
							JOINT left_elbow
							{
								OFFSET	-291.4	-30.8	15.2
								CHANNELS 3  Xrotation Yrotation Zrotation
								JOINT left_lowarm_twist
								{
									OFFSET	-110.7	-3.89999	13.6
									CHANNELS 3  Xrotation Yrotation Zrotation
									JOINT left_hand
									{
										OFFSET	-110.7	-3.89999	13.6
										CHANNELS 3  Xrotation Yrotation Zrotation
										JOINT left_ee
										{
											OFFSET	-80.8	-5.10001	12.1
											CHANNELS 3  Xrotation Yrotation Zrotation
											End Site
											{
												OFFSET	1	0	0
											}
										}
									}
								}
							}
						}
					}
					JOINT right_clavicle
					{
						OFFSET	43.2	22.4	-70.8
						CHANNELS 3  Xrotation Yrotation Zrotation
						JOINT right_shoulder
						{
							OFFSET	93.9	-5.79999	48.7
							CHANNELS 3  Xrotation Yrotation Zrotation
							JOINT right_elbow
							{
								OFFSET	291.4	-30.8	15.2
								CHANNELS 3  Xrotation Yrotation Zrotation
								JOINT right_lowarm_twist
								{
									OFFSET	110.7	-3.89999	13.6
									CHANNELS 3  Xrotation Yrotation Zrotation
									JOINT right_hand
									{
										OFFSET	110.7	-3.89999	13.6
										CHANNELS 3  Xrotation Yrotation Zrotation
										JOINT right_ee
										{
											OFFSET	80.8	-5.10001	12.1
											CHANNELS 3  Xrotation Yrotation Zrotation
											End Site
											{
												OFFSET	1	0	0
											}
										}
									}
								}
							}
						}
					}
				}
			}
		}
	}
	JOINT left_hip
	{
		OFFSET	-82.8	-127.5	0.300001
		CHANNELS 3  Xrotation Yrotation Zrotation
		JOINT left_knee
		{
			OFFSET	-28.2	-396.7	2.2
			CHANNELS 3  Xrotation Yrotation Zrotation
			JOINT left_ankle
			{
				OFFSET	-11.7	-411.3	35.4
				CHANNELS 3  Xrotation Yrotation Zrotation
				JOINT left_toes
				{
					OFFSET	0	-60	-88.6
					CHANNELS 3  Xrotation Yrotation Zrotation
					JOINT left_foot_ee
					{
						OFFSET	-22.5	-16.5	-42.2
						CHANNELS 3  Xrotation Yrotation Zrotation
						End Site
						{
							OFFSET	1	0	0
						}
					}
				}
			}
		}
	}
	JOINT right_hip
	{
		OFFSET	82.8	-127.5	0.300001
		CHANNELS 3  Xrotation Yrotation Zrotation
		JOINT right_knee
		{
			OFFSET	28.2	-396.7	2.2
			CHANNELS 3  Xrotation Yrotation Zrotation
			JOINT right_ankle
			{
				OFFSET	11.7	-411.3	35.4
				CHANNELS 3  Xrotation Yrotation Zrotation
				JOINT right_toes
				{
					OFFSET	0	-60	-88.6
					CHANNELS 3  Xrotation Yrotation Zrotation
					JOINT right_foot_ee
					{
						OFFSET	22.5	-16.5	-42.2
						CHANNELS 3  Xrotation Yrotation Zrotation
						End Site
						{
							OFFSET	1	0	0
						}
					}
				}
			}
		}
	}
}
MOTION
Frames: 10
Frame Time: 0.02
3392.04401427 728.436 -1465.33292184 162.227782962 78.5933229436 -160.458866992 0.477064 -0.00893079 -1.78418 0.478829 0.104601 -1.78113 0.476067 0.46247 -1.72324 0.47197 0.184557 -1.77463 -14.1503 7.3664 5.38123 -14.1562 10.792 7.43233 -0.0 0.0 -0.0 2.95984 24.0177 6.78891 -15.5108 -20.5189 72.3483 1.00578 -26.4836 0.236685 76.0574 -3.39193 -8.37208 -2.46283 26.0761 -3.44189 -0.0 0.0 -0.0 10.6879 0.798251 -21.1291 10.2788 -7.21265 -64.0424 0.389091 10.9099 -0.0371565 57.5769 1.56302 6.87995 3.34252 -3.55066 -24.343 0.0 0.0 0.0 14.4481 9.46953 -12.4672 -42.2805 -0.618189 6.31454 27.6355 20.0916 -3.73586 4.78442 -0.0 -0.0 -0.0 0.0 -0.0 -7.40658 27.4709 -6.79247 0.399753 0.0166673 0.0590806 34.0763 -4.77239 4.3084 -8.99476 0.0 0.0 0.0 0.0 0.0 
3382.99684873 725.95 -1460.39879838 164.280597082 76.0620079011 -162.823457926 0.471365 -0.079772 -1.63139 0.472846 0.0241854 -1.63316 0.472623 0.353851 -1.59456 0.469087 0.0976137 -1.63042 -14.8967 6.76373 5.38918 -14.8927 9.72746 7.31309 -0.0 0.0 -0.0 2.87118 23.1497 6.64636 -16.5955 -19.082 72.3359 0.848553 -22.7992 0.171095 76.6622 -3.45938 -8.41053 -2.13547 26.0061 -1.65533 -0.0 0.0 -0.0 10.333 1.7549 -20.4294 12.254 -6.52008 -65.3414 0.433258 12.1134 -0.0459711 58.1042 1.60809 6.93032 3.2387 -3.49628 -23.5672 0.0 0.0 0.0 16.2198 8.97091 -12.1609 -43.8068 -0.72654 6.52279 28.6814 20.6247 -3.86533 3.95196 -0.0 -0.0 -0.0 0.0 -0.0 -8.86192 28.3945 -6.73083 0.697217 0.0293376 0.102969 36.0853 -4.4438 4.50328 -8.03847 0.0 0.0 0.0 0.0 0.0 
3371.83734214 725.767 -1455.21782701 165.449273044 74.2166997855 -164.35703982 0.493693 0.00278082 -1.51279 0.494961 0.099027 -1.50955 0.492691 0.401658 -1.45851 0.489761 0.1663 -1.50363 -15.5474 6.42044 4.76081 -15.5644 9.51558 6.66671 -0.0 0.0 -0.0 3.04113 22.6214 6.87122 -18.3036 -17.7336 71.4386 0.633768 -17.4298 0.0971499 76.2618 -3.41468 -8.38516 -2.28886 26.0027 -2.5107 -0.0 0.0 -0.0 10.3965 2.74716 -20.6033 14.1788 -5.8882 -66.7329 0.499708 13.9037 -0.0609306 58.4698 1.63961 6.96499 3.20853 -3.61285 -23.3924 0.0 0.0 0.0 17.3351 7.49353 -11.7175 -45.1583 -0.827113 6.70479 28.4918 21.0998 -3.8518 2.86441 -0.0 -0.0 -0.0 0.0 -0.0 -10.1887 29.125 -6.44823 0.662795 0.0278595 0.0978937 35.9111 -4.43507 4.48676 -7.95164 0.0 0.0 0.0 0.0 0.0 
3361.04552078 722.988 -1446.43380907 166.445188725 72.1637742406 -165.773564086 0.541242 0.048175 -1.45141 0.542403 0.140424 -1.4454 0.539128 0.428137 -1.38767 0.536499 0.20363 -1.43786 -15.9018 6.13713 4.04417 -15.9389 9.42465 5.92954 -0.0 0.0 -0.0 3.06274 22.2856 6.89433 -19.6177 -16.7561 70.8306 0.555806 -15.394 0.0751188 76.1049 -3.39722 -8.37513 -2.3915 26.1305 -3.01693 -0.0 0.0 -0.0 10.2609 3.50259 -20.3411 16.2069 -5.18425 -67.7662 0.561869 15.5538 -0.0767365 58.6105 1.65179 6.97828 3.20462 -3.72203 -23.4051 0.0 0.0 0.0 19.9056 6.4657 -11.2309 -44.7118 -0.79341 6.64492 27.7136 21.4088 -3.76693 1.96313 -0.0 -0.0 -0.0 0.0 -0.0 -11.2867 29.482 -6.50761 0.415924 0.0173499 0.0614683 35.7068 -4.43798 4.46729 -7.93798 0.0 0.0 0.0 0.0 0.0 
3361.4198623 722.988 -1443.74154819 166.951873531 71.4596208979 -166.306885972 0.541242 0.048175 -1.45141 0.542403 0.140424 -1.4454 0.539128 0.428137 -1.38767 0.536499 0.20363 -1.43786 -15.9018 6.13713 4.04417 -15.9389 9.42465 5.92954 -0.0 0.0 -0.0 3.06274 22.2856 6.89433 -19.6177 -16.7561 70.8306 0.555806 -15.394 0.0751188 76.1049 -3.39722 -8.37513 -2.3915 26.1305 -3.01693 -0.0 0.0 -0.0 10.2609 3.50259 -20.3411 16.2069 -5.18425 -67.7662 0.561869 15.5538 -0.0767365 58.6105 1.65179 6.97828 3.20462 -3.72203 -23.4051 0.0 0.0 0.0 19.9056 6.4657 -11.2309 -44.7118 -0.79341 6.64492 27.7136 21.4088 -3.76693 1.96313 -0.0 -0.0 -0.0 0.0 -0.0 -11.2867 29.482 -6.50761 0.415924 0.0173499 0.0614683 35.7068 -4.43798 4.46729 -7.93798 0.0 0.0 0.0 0.0 0.0 
3355.7703873 718.462 -1437.75214722 169.259742501 69.5182182937 -168.608651713 0.501733 -0.155235 -1.21068 0.502546 -0.0778875 -1.2181 0.504504 0.16925 -1.2088 0.502466 -0.0237663 -1.22036 -15.0833 6.2132 4.02133 -15.1146 9.50611 5.86177 -0.0 0.0 -0.0 3.1659 22.1456 7.03769 -20.6021 -16.085 70.469 0.298131 -8.40121 0.0218966 75.2196 -3.29921 -8.31767 -2.93997 28.1446 -4.96419 -0.0 0.0 -0.0 10.5498 3.76047 -20.965 18.6526 -4.30501 -68.6407 0.696192 19.028 -0.116679 59.0853 1.69317 7.02291 3.31244 -3.92326 -24.2635 0.0 0.0 0.0 22.2693 8.56145 -10.9344 -39.1518 -0.413692 5.87919 26.0818 21.418 -3.57418 -0.80414 0.0 0.0 -0.0 0.0 -0.0 -11.906 28.1946 -6.77828 2.09347 0.0918522 0.308089 36.6382 -5.88893 4.55492 -7.93797 0.0 0.0 0.0 0.0 0.0 
3344.33245866 717.686 -1434.54914762 171.051163374 68.4085655287 -170.194094613 0.482134 -0.0860019 -0.732248 0.482432 -0.0392341 -0.736236 0.483045 0.110244 -0.728992 0.482304 -0.00626653 -0.737254 -14.1772 5.594 1.89851 -14.2366 9.52422 3.58008 -0.0 0.0 -0.0 3.11313 21.9102 6.95777 -21.4819 -15.6431 69.4541 0.193217 -5.46748 0.00922592 74.1354 -3.18039 -8.24524 -3.49938 28.8086 -7.62397 -0.0 0.0 -0.0 10.8303 4.75532 -21.5992 18.7736 -3.7068 -69.8634 0.790702 21.3897 -0.149334 59.3357 1.71515 7.04632 3.19113 -4.64389 -23.6503 0.0 0.0 0.0 24.3405 8.46601 -10.435 -34.5052 -0.154691 5.214 24.0885 21.1845 -3.32908 -2.09759 0.0 0.0 -0.0 0.0 -0.0 -12.1863 27.5506 -7.3261 2.79218 0.125011 0.410159 36.7415 -4.71763 4.5647 -8.2962 0.0 0.0 0.0 0.0 0.0 
3336.38805837 715.789 -1434.20576017 172.475956176 68.9012654418 -172.975139288 0.550192 0.0255729 -0.529425 0.550346 0.0592092 -0.526725 0.549834 0.163767 -0.504109 0.549489 0.082098 -0.523645 -14.25 4.64436 -0.628207 -14.3156 9.24609 0.889089 -0.0 0.0 -0.0 3.05319 22.2179 6.8793 -22.6455 -15.1563 68.2264 0.180913 -5.12125 0.0080906 74.2933 -3.19761 -8.25592 -3.47442 28.7862 -7.50168 -0.0 0.0 -0.0 10.9193 5.32768 -21.808 19.3255 -3.0137 -70.6233 0.878273 23.5122 -0.182782 59.1429 1.69822 7.0283 3.22207 -5.10348 -24.0427 0.0 0.0 0.0 25.6719 9.19343 -10.2534 -31.7195 -0.0256273 4.80611 20.2645 22.3198 -2.86354 -3.11313 0.0 0.0 -0.0 0.0 -0.0 -12.5434 27.8015 -7.00509 3.62712 0.166269 0.531601 36.7112 -4.87042 4.56175 -8.28852 0.0 0.0 0.0 0.0 0.0 
3323.2140944 715.247 -1432.14619751 173.408428937 69.1254945506 -173.837634993 0.456447 0.140551 -0.453105 0.456546 0.169099 -0.443243 0.455236 0.255317 -0.39984 0.455062 0.188966 -0.435144 -13.99 4.96528 -0.355953 -14.0601 9.68873 1.22834 -0.0 0.0 -0.0 2.79196 22.6455 6.52194 -24.155 -14.5555 67.4865 0.180242 -5.10235 0.00803088 73.5635 -3.11827 -8.20613 -3.79336 29.0107 -9.09978 -0.0 0.0 -0.0 11.2273 6.16497 -22.5015 20.7826 -2.4175 -71.2932 1.00277 26.415 -0.235342 58.7254 1.66178 6.98911 3.17632 -5.34135 -23.7985 0.0 0.0 0.0 27.1033 9.70452 -9.94377 -28.0493 0.113826 4.26021 18.6946 25.0662 -2.69673 -3.64494 0.0 0.0 -0.0 0.0 -0.0 -13.0825 28.0916 -6.95209 3.7696 0.173486 0.552265 36.8753 -4.71039 4.57718 -8.39123 0.0 0.0 0.0 0.0 0.0 
3323.1080458 715.247 -1432.77658633 173.364853194 69.2682885513 -173.791020305 0.456447 0.140551 -0.453105 0.456546 0.169099 -0.443243 0.455236 0.255317 -0.39984 0.455062 0.188966 -0.435144 -13.99 4.96528 -0.355953 -14.0601 9.68873 1.22834 -0.0 0.0 -0.0 2.79196 22.6455 6.52194 -24.155 -14.5555 67.4865 0.180242 -5.10235 0.00803088 73.5635 -3.11827 -8.20613 -3.79336 29.0107 -9.09978 -0.0 0.0 -0.0 11.2273 6.16497 -22.5015 20.7826 -2.4175 -71.2932 1.00277 26.415 -0.235342 58.7254 1.66178 6.98911 3.17632 -5.34135 -23.7985 0.0 0.0 0.0 27.1033 9.70452 -9.94377 -28.0493 0.113826 4.26021 18.6946 25.0662 -2.69673 -3.64494 0.0 0.0 -0.0 0.0 -0.0 -13.0825 28.0916 -6.95209 3.7696 0.173486 0.552265 36.8753 -4.71039 4.57718 -8.39123 0.0 0.0 0.0 0.0 0.0 
